<svg width="16" height="16" viewBox="0 0 16 16" fill="none" xmlns="http://www.w3.org/2000/svg">
<path d="M14.7697 6.10857C14.6438 5.98251 14.4942 5.88251 14.3296 5.81428C14.1649 5.74606 13.9885 5.71094 13.8103 5.71094C13.6321 5.71094 13.4556 5.74606 13.291 5.81428C13.1264 5.88251 12.9768 5.98251 12.8508 6.10857C12.7249 6.23461 12.5754 6.33459 12.4109 6.40281C12.2463 6.47103 12.0699 6.50614 11.8918 6.50614C11.7136 6.50614 11.5372 6.47103 11.3727 6.40281C11.2081 6.33459 11.0586 6.23461 10.9327 6.10857C10.8068 5.98254 10.6573 5.88255 10.4928 5.81434C10.3282 5.74612 10.1518 5.71101 9.97368 5.71101C9.79554 5.71101 9.61914 5.74612 9.45458 5.81434C9.29002 5.88255 9.14052 5.98254 9.01463 6.10857C8.88873 6.23461 8.73923 6.33459 8.57467 6.40281C8.41011 6.47103 8.23372 6.50614 8.05558 6.50614C7.87744 6.50614 7.70104 6.47103 7.53648 6.40281C7.37192 6.33459 7.22242 6.23461 7.09653 6.10857C6.97063 5.98254 6.82113 5.88255 6.65657 5.81434C6.49201 5.74612 6.31562 5.71101 6.13748 5.71101C5.95934 5.71101 5.78294 5.74612 5.61838 5.81434C5.45382 5.88255 5.30432 5.98254 5.17843 6.10857C5.05253 6.23461 4.90303 6.33459 4.73847 6.40281C4.57391 6.47103 4.39752 6.50614 4.21938 6.50614C4.04124 6.50614 3.86484 6.47103 3.70028 6.40281C3.53572 6.33459 3.38622 6.23461 3.26033 6.10857C3.13436 5.98251 2.9848 5.88251 2.82017 5.81428C2.65554 5.74606 2.47908 5.71094 2.30088 5.71094C2.12267 5.71094 1.94621 5.74606 1.78159 5.81428C1.61696 5.88251 1.46739 5.98251 1.34143 6.10857L6.46643 12.0679H9.64472L14.7697 6.10857Z" stroke="white" stroke-miterlimit="10" stroke-linecap="square"/>
<path d="M6.46645 12.0679L5.67188 15.2462H10.4393L9.64474 12.0679" stroke="white" stroke-miterlimit="10" stroke-linecap="square"/>
<path d="M7.56151 2.03805C8.54489 1.08182 9.86239 0.546782 11.234 0.546631V2.93035C11.234 3.77329 10.8992 4.5817 10.3031 5.17774C9.70708 5.77379 8.89867 6.10864 8.05574 6.10864C7.2128 6.10864 6.40439 5.77379 5.80834 5.17774C5.2123 4.5817 4.87744 3.77329 4.87744 2.93035V0.546631C5.72038 0.546631 6.52879 0.881486 7.12483 1.47753C7.72088 2.07358 8.05574 2.88199 8.05574 3.72492" stroke="white" stroke-miterlimit="10"/>
<path d="M3.28805 6.10873C2.80472 6.00543 2.37645 5.72755 2.08516 5.32827C1.79387 4.92899 1.66001 4.43634 1.70919 3.94455C1.75837 3.45276 1.98713 2.99636 2.35172 2.66267C2.71631 2.32898 3.19113 2.14142 3.68534 2.13586H4.8772" stroke="white" stroke-miterlimit="10" stroke-linecap="square"/>
<path d="M12.8233 6.10873C13.3066 6.00543 13.7349 5.72755 14.0262 5.32827C14.3175 4.92899 14.4513 4.43634 14.4021 3.94455C14.353 3.45276 14.1242 2.99636 13.7596 2.66267C13.395 2.32898 12.9202 2.14142 12.426 2.13586H11.2341" stroke="white" stroke-miterlimit="10" stroke-linecap="square"/>
</svg>
