<svg width="17" height="17" viewBox="0 0 17 17" fill="none" xmlns="http://www.w3.org/2000/svg">
<path d="M10.6869 10.5076L9.05365 12.1187C8.20191 11.6052 7.41067 10.9974 6.69486 10.3069C6.00542 9.58994 5.39776 8.79857 4.88305 7.94739L6.4927 6.31409C6.59019 6.2151 6.65603 6.08933 6.68184 5.95281C6.70765 5.81629 6.69227 5.67517 6.63765 5.54741L4.95934 1.63543C4.89304 1.48118 4.77353 1.35588 4.62258 1.28237C4.47163 1.20885 4.29929 1.19202 4.13697 1.23493L1.05957 2.04891C0.905886 2.08875 0.770278 2.17957 0.674933 2.30651C0.579588 2.43345 0.530152 2.589 0.534713 2.74769C0.730523 6.32689 2.2187 9.71338 4.72285 12.2782C7.28813 14.7831 10.6755 16.2716 14.2556 16.4671C14.4145 16.4724 14.5704 16.4234 14.6976 16.3281C14.8248 16.2328 14.9157 16.0969 14.9552 15.943L15.7684 12.8641C15.8115 12.7018 15.7949 12.5295 15.7215 12.3785C15.6481 12.2276 15.5229 12.108 15.3687 12.0417L11.4559 10.3642C11.328 10.3087 11.1865 10.2928 11.0495 10.3183C10.9125 10.3439 10.7863 10.4098 10.6869 10.5076V10.5076Z" stroke="white" stroke-miterlimit="10" stroke-linecap="square"/>
</svg>
